<svg width="137" height="36" viewBox="0 0 137 36" fill="none" xmlns="http://www.w3.org/2000/svg">
<path d="M121.932 0.700195C125.564 0.700198 128.572 1.56674 130.934 3.32324H130.935C133.332 5.08409 134.722 7.496 135.1 10.5371L135.142 10.874H127.574L127.522 10.6396C127.263 9.47442 126.67 8.61813 125.749 8.0459C124.818 7.46777 123.524 7.16408 121.84 7.16406C120.317 7.16406 119.09 7.47631 118.14 8.0791L118.134 8.08301C117.216 8.63723 116.762 9.45349 116.762 10.5742C116.762 11.3534 117.062 11.9822 117.675 12.4834C118.301 12.995 119.266 13.3831 120.605 13.623L126.719 14.7227H126.721L127.276 14.834C130.016 15.4192 132.126 16.4778 133.573 18.0322C135.122 19.6947 135.883 21.8922 135.883 24.5928C135.883 27.6138 134.709 30.1531 132.379 32.1934L132.378 32.1953C130.037 34.2132 126.693 35.2001 122.392 35.2002C118.37 35.2002 115.101 34.3015 112.61 32.4766L112.371 32.2969C109.851 30.3499 108.419 27.6924 108.074 24.3486L108.04 24.0176H115.613L115.654 24.2686C115.902 25.7672 116.6 26.8688 117.739 27.6045C118.89 28.3476 120.522 28.7363 122.667 28.7363C124.469 28.7363 125.858 28.3768 126.864 27.6895L126.867 27.6865L127.054 27.5566C127.951 26.8918 128.389 26.0177 128.389 24.9131C128.389 23.7583 128.03 22.9395 127.353 22.3994L127.348 22.3955C126.668 21.8312 125.623 21.4012 124.178 21.1309V21.1318L117.927 20.0322C115.084 19.5367 112.913 18.5269 111.452 16.9756C109.987 15.4196 109.268 13.3516 109.268 10.8037C109.268 7.90285 110.412 5.48359 112.684 3.56543L113.119 3.2168C115.349 1.52944 118.296 0.700195 121.932 0.700195ZM10.0498 1.2959L10.1348 1.45215L22.0928 23.4678H22.8086V1.2959H29.6602V34.6045H20.3105L20.2256 34.4473L8.26758 12.4316H7.55078V34.6045H0.700195V1.2959H10.0498ZM61.5234 1.2959V7.98828H44.1025V14.2598H57.6621V20.8154H44.1025V27.9121H62.0293V34.6045H36.6543V1.2959H61.5234ZM73.0293 1.2959L73.0596 1.5625L75.7871 25.8955H76.4863L80.5156 11.4102L80.5771 11.1904H89.5811L89.6426 11.4092L93.7178 25.8955H94.3721L97.1455 1.56152L97.1758 1.2959H104.263L104.223 1.63086L100.315 34.3398L100.284 34.6045H89.7666L89.708 34.3809L85.4453 18.1582H84.7119L80.4053 34.3818L80.3457 34.6045H69.8291L69.7969 34.3398L65.8906 1.63086L65.8506 1.2959H73.0293Z" fill="#6053A8" stroke="#6053A8" stroke-width="0.6"/>
</svg>
